<svg preserveAspectRatio="none" width="100%" height="100%" overflow="visible" style="display: block;" viewBox="0 0 34 44" fill="none" xmlns="http://www.w3.org/2000/svg">
<g id="Group 1000004644">
<path id="Vector" d="M17.1553 1.00098C25.9461 1.08734 33.0006 8.43256 33 17.4229C33 21.6798 31.1946 25.2815 29.084 28.4707C28.5659 29.2536 26.1835 32.5338 23.958 35.582C22.8394 37.1142 21.7518 38.5986 20.9443 39.7002C20.5405 40.2511 20.2076 40.707 19.9746 41.0244C19.8581 41.1831 19.7662 41.307 19.7041 41.3916C19.6731 41.4338 19.6498 41.4665 19.6338 41.4883C19.6322 41.4904 19.6303 41.4922 19.6289 41.4941C18.4307 43.5024 15.562 43.5006 14.3672 41.4883L14.3652 41.4863C14.3493 41.4645 14.3258 41.4319 14.2949 41.3897C14.2332 41.3051 14.1422 41.181 14.0264 41.0225C13.7947 40.7053 13.4626 40.2506 13.0605 39.7002C12.2563 38.5992 11.1721 37.1153 10.0537 35.584C7.81766 32.5224 5.44178 29.2678 4.88867 28.5059C3.93969 27.1984 3.03991 25.6616 2.36621 24.0791L2.0918 23.3984C1.38724 21.5454 1 19.5301 1 17.4238C1.00015 8.37438 8.28778 0.914785 17.1553 1.00098Z" fill="var(--fill-0, #34AC5C)" stroke="var(--stroke-0, white)" stroke-width="2"/>
</g>
</svg>
